<svg xmlns="http://www.w3.org/2000/svg" xmlns:xlink="http://www.w3.org/1999/xlink" viewBox="0 0 386.56 50.41"><defs><style>.cls-1{fill:#515151;}.cls-2{fill:url(#linear-gradient);}.cls-3{fill:url(#linear-gradient-2);}</style><linearGradient id="linear-gradient" x1="-7.62" y1="43.09" x2="68.88" y2="1.09" gradientUnits="userSpaceOnUse"><stop offset="0" stop-color="#ff9115"/><stop offset="1" stop-color="#ff5567"/></linearGradient><linearGradient id="linear-gradient-2" x1="1.78" y1="60.22" x2="78.28" y2="18.22" xlink:href="#linear-gradient"/></defs><title>Logo</title><g id="Layer_2" data-name="Layer 2"><g id="Layer_1-2" data-name="Layer 1"><path class="cls-1" d="M133.77,35.09h-8.24V31.68h1V24.35a5.81,5.81,0,0,0-.94-3.76A3.25,3.25,0,0,0,123,19.48a3.61,3.61,0,0,0-3.22,1.5,6.12,6.12,0,0,0-1.06,3.42v7.28h2.78v3.41h-8.24V31.68h1V24.35a5.88,5.88,0,0,0-.93-3.76,3.22,3.22,0,0,0-2.6-1.11A3.67,3.67,0,0,0,107.51,21a6,6,0,0,0-1.08,3.39v7.33h3.5v3.41H99.19V31.68H102V19.86H99.23V16.41h7.2v3.07A7.22,7.22,0,0,1,108.76,17a6.29,6.29,0,0,1,3.54-1,7,7,0,0,1,3.74,1,5.41,5.41,0,0,1,2.33,3.18,7.26,7.26,0,0,1,2.42-3.05A6.36,6.36,0,0,1,124.66,16a6.69,6.69,0,0,1,4.45,1.62A6.33,6.33,0,0,1,131,22.73v9h2.75Z"/><path class="cls-1" d="M137.26,17.78A17.91,17.91,0,0,1,141,16.41a16.69,16.69,0,0,1,3.74-.38,8.12,8.12,0,0,1,5.14,1.58,5.69,5.69,0,0,1,2,4.75v8.4c0,1.11.45,1.67,1.37,1.67a3.74,3.74,0,0,0,1-.17l0,2.45a5.9,5.9,0,0,1-3,.79c-2.36,0-3.63-1.23-3.83-3.7v-.08a8.74,8.74,0,0,1-2.35,2.62,6,6,0,0,1-3.76,1.16,7.16,7.16,0,0,1-3.85-1.18q-1.89-1.18-1.89-4.14,0-3.45,2.74-4.56a15.94,15.94,0,0,1,5.95-1.1c.53,0,1.07,0,1.63,0s1.06.07,1.53.13v-1a7.4,7.4,0,0,0-.58-3c-.39-.89-1.36-1.33-2.91-1.33a10.62,10.62,0,0,0-1.64.12,4.89,4.89,0,0,0-1.48.5l-.75,2.87-3.58-.37Zm10.15,9.9V27L146,26.85a12.9,12.9,0,0,0-1.54-.08,7.27,7.27,0,0,0-3,.58,2.29,2.29,0,0,0-1.31,2.33c0,1.69.9,2.54,2.71,2.54a4.65,4.65,0,0,0,3-1.15A4.53,4.53,0,0,0,147.41,27.68Z"/><path class="cls-1" d="M167.51,16.11a6.39,6.39,0,0,1,3.5,1L171.8,23l-3.46.42-.7-3.21a3.42,3.42,0,0,0-1.42-.41,2.66,2.66,0,0,0-2,.95,3.92,3.92,0,0,0-.85,2.67v8.28h3.7v3.41H156.11V31.68h2.79V19.86H156V16.41h7V19.9a6.39,6.39,0,0,1,1.6-2.68A3.9,3.9,0,0,1,167.51,16.11Z"/><path class="cls-1" d="M183.41,35.09h-10V31.68h2.79V9.87h-3V6.46h7.37V31.68h2.79Z"/><path class="cls-1" d="M195.56,35.09h-10V31.68h2.79V19.86h-3V16.41h7.37V31.68h2.79Zm-7.45-22.55V7.63h4.53v4.91Z"/><path class="cls-1" d="M220.27,35.09h-10V31.68H213V24.35a5.81,5.81,0,0,0-.95-3.76,3.34,3.34,0,0,0-2.67-1.11,4.26,4.26,0,0,0-3.35,1.38,5,5,0,0,0-1.27,3.37v7.45h2.79v3.41h-10V31.68h2.79V19.86h-2.91V16.41h7.36v3A6.64,6.64,0,0,1,211,16a6.86,6.86,0,0,1,4.58,1.62c1.28,1.09,1.91,2.78,1.91,5.08v9h2.79Z"/><path class="cls-1" d="M256.24,25.27a12.44,12.44,0,0,1-2.1,7.11,7.25,7.25,0,0,1-6.47,3.12,6.4,6.4,0,0,1-5.86-2.91v7.87h3.7V44H234.57V40.46h2.78V19.82h-2.91V16.41h7.37v3.7a7.86,7.86,0,0,1,2.31-2.87A6.35,6.35,0,0,1,248.21,16,7.49,7.49,0,0,1,254,18.47,9.72,9.72,0,0,1,256.24,25.27Zm-4.61.46a6.68,6.68,0,0,0-1.38-4.56,4.44,4.44,0,0,0-3.49-1.56,4.19,4.19,0,0,0-3.54,1.71,6.79,6.79,0,0,0-1.37,4l0,1.46a5.19,5.19,0,0,0,1.35,3.74,4.6,4.6,0,0,0,3.47,1.42,4.45,4.45,0,0,0,3.69-1.67A7.16,7.16,0,0,0,251.63,25.73Z"/><path class="cls-1" d="M270,16.11a6.36,6.36,0,0,1,3.49,1L274.3,23l-3.45.42-.71-3.21a3.38,3.38,0,0,0-1.41-.41,2.64,2.64,0,0,0-2,.95,3.87,3.87,0,0,0-.85,2.67v8.28h3.7v3.41H258.62V31.68h2.78V19.86h-2.91V16.41h7V19.9a6.6,6.6,0,0,1,1.6-2.68A3.91,3.91,0,0,1,270,16.11Z"/><path class="cls-1" d="M295.94,25.77a9.36,9.36,0,0,1-2.77,7.05A9.87,9.87,0,0,1,286,35.5a8.92,8.92,0,0,1-9.48-9.57,10.62,10.62,0,0,1,2.45-7Q281.42,16,286.24,16t7.29,2.91A10.47,10.47,0,0,1,295.94,25.77Zm-4.62-.13a6.6,6.6,0,0,0-1.43-4.57,4.8,4.8,0,0,0-3.73-1.59,4.47,4.47,0,0,0-3.7,1.69,7.07,7.07,0,0,0-1.33,4.52,7.67,7.67,0,0,0,1.27,4.49A4.27,4.27,0,0,0,286.16,32,4.54,4.54,0,0,0,290,30.24,7.32,7.32,0,0,0,291.32,25.64Z"/><path class="cls-1" d="M313.29,29.6q-.8,5.91-6.57,5.9A6.87,6.87,0,0,1,302,33.92a5.6,5.6,0,0,1-1.77-4.41V19.69h-2.74V16.41h2.74V10.62h4.46v5.79h6.94v3.28h-6.94v9.12c0,2,.85,3,2.58,3a3.15,3.15,0,0,0,1.58-.52c.58-.35,1-1.24,1.2-2.68Z"/><path class="cls-1" d="M333.68,25.77a9.36,9.36,0,0,1-2.77,7.05,9.87,9.87,0,0,1-7.18,2.68,8.92,8.92,0,0,1-9.48-9.57,10.57,10.57,0,0,1,2.45-7C318.34,17,320.76,16,324,16s5.68,1,7.28,2.91A10.43,10.43,0,0,1,333.68,25.77Zm-4.62-.13a6.56,6.56,0,0,0-1.44-4.57,4.77,4.77,0,0,0-3.72-1.59,4.45,4.45,0,0,0-3.7,1.69,7.07,7.07,0,0,0-1.34,4.52,7.74,7.74,0,0,0,1.27,4.49A4.29,4.29,0,0,0,323.9,32a4.54,4.54,0,0,0,3.79-1.77A7.32,7.32,0,0,0,329.06,25.64Z"/><path class="cls-1" d="M353.28,28.39a9.16,9.16,0,0,1-2.21,4.8q-1.92,2.31-6.16,2.31a9,9,0,0,1-6.51-2.41q-2.52-2.42-2.52-7a10.17,10.17,0,0,1,2.6-7.28A9,9,0,0,1,345.29,16a13.57,13.57,0,0,1,3.33.42,12.45,12.45,0,0,1,3.28,1.37l.75,5.24-3.58.38-.62-3.08a7.34,7.34,0,0,0-3.25-.75c-3.1,0-4.66,2.08-4.66,6.24s1.6,6.08,4.79,6.08q3.5,0,4.2-4.25Z"/><path class="cls-1" d="M374.7,25.77a9.39,9.39,0,0,1-2.76,7.05,9.89,9.89,0,0,1-7.18,2.68,8.92,8.92,0,0,1-9.49-9.57,10.58,10.58,0,0,1,2.46-7Q360.18,16,365,16c3.25,0,5.67,1,7.28,2.91A10.42,10.42,0,0,1,374.7,25.77Zm-4.61-.13a6.56,6.56,0,0,0-1.44-4.57,4.79,4.79,0,0,0-3.72-1.59,4.49,4.49,0,0,0-3.71,1.69,7.13,7.13,0,0,0-1.33,4.52,7.67,7.67,0,0,0,1.27,4.49A4.29,4.29,0,0,0,364.93,32a4.52,4.52,0,0,0,3.78-1.77A7.26,7.26,0,0,0,370.09,25.64Z"/><path class="cls-1" d="M386.56,35.09h-10V31.68h2.78V9.87h-2.95V6.46h7.37V31.68h2.78Z"/><path class="cls-2" d="M3.71,50.31A3.71,3.71,0,0,1,1.08,44L43.76,1.09A3.71,3.71,0,0,1,49,6.33L6.34,49.22A3.69,3.69,0,0,1,3.71,50.31Z"/><path class="cls-3" d="M65.47,50.41a3.72,3.72,0,0,1-3.72-3.71V12.81L25.41,49.32a3.71,3.71,0,0,1-5.26-5.24L62.83,1.2a3.71,3.71,0,0,1,6.35,2.61V46.7A3.72,3.72,0,0,1,65.47,50.41Z"/></g></g></svg>